<svg width="16" height="16" viewBox="0 0 16 16" fill="none" xmlns="http://www.w3.org/2000/svg">
<g clip-path="url(#clip0_8_585)">
<g clip-path="url(#clip1_8_585)">
<path fill-rule="evenodd" clip-rule="evenodd" d="M7.99996 2C4.68625 2 1.99996 4.68629 1.99996 8C1.99996 11.3137 4.68625 14 7.99996 14C11.3137 14 14 11.3137 14 8C14 4.68629 11.3137 2 7.99996 2ZM0.666626 8C0.666626 3.94991 3.94987 0.666666 7.99996 0.666666C12.05 0.666666 15.3333 3.94991 15.3333 8C15.3333 12.0501 12.05 15.3333 7.99996 15.3333C3.94987 15.3333 0.666626 12.0501 0.666626 8ZM7.99996 4.66667C8.36815 4.66667 8.66663 4.96514 8.66663 5.33333V7.33333H10.6666C11.0348 7.33333 11.3333 7.63181 11.3333 8C11.3333 8.36819 11.0348 8.66667 10.6666 8.66667H8.66663V10.6667C8.66663 11.0349 8.36815 11.3333 7.99996 11.3333C7.63177 11.3333 7.33329 11.0349 7.33329 10.6667V8.66667H5.33329C4.9651 8.66667 4.66663 8.36819 4.66663 8C4.66663 7.63181 4.9651 7.33333 5.33329 7.33333H7.33329V5.33333C7.33329 4.96514 7.63177 4.66667 7.99996 4.66667Z" fill="#ADB5BD"/>
</g>
</g>
<defs>
<clipPath id="clip0_8_585">
<rect width="16" height="16" fill="white"/>
</clipPath>
<clipPath id="clip1_8_585">
<rect width="16" height="16" fill="white"/>
</clipPath>
</defs>
</svg>
